<svg width="32" height="28" viewBox="0 0 32 28" fill="none" xmlns="http://www.w3.org/2000/svg">
<path d="M31 7.92308C31 7.31104 30.7569 6.72407 30.3241 6.29129C29.8913 5.85852 29.3043 5.61538 28.6923 5.61538H13.6923L10.9231 1.92308C10.7081 1.63647 10.4294 1.40385 10.109 1.24363C9.78852 1.08341 9.43518 1 9.07692 1H3.30769C2.69565 1 2.10868 1.24313 1.67591 1.67591C1.24313 2.10868 1 2.69565 1 3.30769V24.0769C1 24.689 1.24313 25.2759 1.67591 25.7087C2.10868 26.1415 2.69565 26.3846 3.30769 26.3846H28.6923C29.3043 26.3846 29.8913 26.1415 30.3241 25.7087C30.7569 25.2759 31 24.689 31 24.0769V7.92308Z" stroke="white" stroke-width="1.5" stroke-linecap="round" stroke-linejoin="round"/>
</svg>
