<svg width="32" height="28" viewBox="0 0 32 28" fill="none" xmlns="http://www.w3.org/2000/svg">
<path d="M30.9994 10.2307H15.9981C14.672 10.2307 13.4002 10.8385 12.4625 11.9205C11.5248 13.0024 10.998 14.4698 10.998 15.9999" stroke="white" stroke-width="1.5" stroke-linecap="round" stroke-linejoin="round"/>
<path d="M26.9995 5.61523L30.9995 10.2306L26.9995 14.846" stroke="white" stroke-width="1.5" stroke-linecap="round" stroke-linejoin="round"/>
<path d="M23 3.30769C23 2.69565 22.7893 2.10868 22.4142 1.67591C22.0392 1.24313 21.5305 1 21 1H3C2.46957 1 1.96086 1.24313 1.58579 1.67591C1.21071 2.10868 1 2.69565 1 3.30769V24.0769C1 24.689 1.21071 25.2759 1.58579 25.7087C1.96086 26.1415 2.46957 26.3846 3 26.3846H21C21.5305 26.3846 22.0392 26.1415 22.4142 25.7087C22.7893 25.2759 23 24.689 23 24.0769V17.1538" stroke="white" stroke-width="1.5" stroke-linecap="round" stroke-linejoin="round"/>
</svg>
