<svg width="30" height="30" viewBox="0 0 30 30" fill="none" xmlns="http://www.w3.org/2000/svg">
<path d="M6.5625 17.8101V23.4351H0.9375M23.4375 12.1851V6.56006H29.0625M23.79 6.55631C25.7296 8.57703 26.9142 11.2041 27.1444 13.9955C27.3747 16.787 26.6366 19.5726 25.0543 21.8839C23.472 24.1951 21.1421 25.8909 18.4564 26.6861C15.7707 27.4813 12.893 27.3273 10.3075 26.2501M6.20875 23.4388C4.27335 21.4171 3.09251 18.791 2.86452 16.0015C2.63654 13.212 3.37528 10.429 4.95671 8.11984C6.53814 5.81067 8.86594 4.11593 11.5492 3.32023C14.2325 2.52452 17.1079 2.67629 19.6925 3.75006" stroke="white" stroke-width="1.5" stroke-linecap="round" stroke-linejoin="round"/>
</svg>
